<svg width="31" height="31" viewBox="0 0 31 31" color="currentColor" fill="none" xmlns="http://www.w3.org/2000/svg">
<path d="M23.6376 9.26233C23.5214 9.14517 23.3831 9.05217 23.2308 8.98871C23.0785 8.92525 22.9151 8.89258 22.7501 8.89258C22.585 8.89258 22.4217 8.92525 22.2693 8.98871C22.117 9.05217 21.9788 9.14517 21.8626 9.26233L12.5501 18.5873L8.63756 14.6623C8.51691 14.5458 8.37448 14.4541 8.21841 14.3926C8.06234 14.3311 7.89569 14.301 7.72796 14.3039C7.56024 14.3068 7.39472 14.3427 7.24088 14.4095C7.08703 14.4764 6.94786 14.5729 6.83131 14.6936C6.71476 14.8142 6.62312 14.9567 6.56161 15.1127C6.50011 15.2688 6.46995 15.4354 6.47285 15.6032C6.47575 15.7709 6.51166 15.9364 6.57853 16.0903C6.64539 16.2441 6.74191 16.3833 6.86256 16.4998L11.6626 21.2998C11.7788 21.417 11.917 21.51 12.0693 21.5734C12.2217 21.6369 12.385 21.6696 12.5501 21.6696C12.7151 21.6696 12.8785 21.6369 13.0308 21.5734C13.1831 21.51 13.3214 21.417 13.4376 21.2998L23.6376 11.0998C23.7644 10.9828 23.8657 10.8407 23.935 10.6826C24.0042 10.5245 24.04 10.3537 24.04 10.1811C24.04 10.0084 24.0042 9.83769 23.935 9.67957C23.8657 9.52144 23.7644 9.37938 23.6376 9.26233Z" fill="currentColor"/>
</svg>
