<svg width="56" height="56" viewBox="0 0 56 56" fill="none" xmlns="http://www.w3.org/2000/svg">
<rect width="56" height="56" rx="28" fill="#1BAC4B" fill-opacity="0.08"/>
<path fill-rule="evenodd" clip-rule="evenodd" d="M24.2887 19.4285H31.7201C34.6259 19.4285 36.5716 21.4685 36.5716 24.5028V31.5065C36.5716 34.5313 34.6259 36.5713 31.7201 36.5713H24.2887C21.383 36.5713 19.4287 34.5313 19.4287 31.5065V24.5028C19.4287 21.4685 21.383 19.4285 24.2887 19.4285ZM27.5116 30.5628L31.583 26.4913C31.8744 26.1999 31.8744 25.7285 31.583 25.4285C31.2916 25.137 30.8116 25.137 30.5201 25.4285L26.9801 28.9685L25.4801 27.4685C25.1887 27.177 24.7087 27.177 24.4173 27.4685C24.1259 27.7599 24.1259 28.2313 24.4173 28.5313L26.4573 30.5628C26.603 30.7085 26.7916 30.777 26.9801 30.777C27.1773 30.777 27.3659 30.7085 27.5116 30.5628Z" fill="url(#paint0_linear_5_4108)"/>
<defs>
<linearGradient id="paint0_linear_5_4108" x1="36.5716" y1="36.5713" x2="16.1731" y2="30.657" gradientUnits="userSpaceOnUse">
<stop stop-color="#1BAC4B"/>
<stop offset="1" stop-color="#46D375"/>
</linearGradient>
</defs>
</svg>
