<svg width="56" height="56" viewBox="0 0 56 56" fill="none" xmlns="http://www.w3.org/2000/svg">
<rect width="56" height="56" rx="28" fill="#FF5A5F" fill-opacity="0.08"/>
<path fill-rule="evenodd" clip-rule="evenodd" d="M23.67 17.9993H32.34C35.73 17.9993 38 20.3793 38 23.9193V32.0903C38 35.6203 35.73 37.9993 32.34 37.9993H23.67C20.28 37.9993 18 35.6203 18 32.0903V23.9193C18 20.3793 20.28 17.9993 23.67 17.9993ZM31.01 30.9993C31.35 30.6603 31.35 30.1103 31.01 29.7703L29.23 27.9903L31.01 26.2093C31.35 25.8703 31.35 25.3103 31.01 24.9703C30.67 24.6293 30.12 24.6293 29.77 24.9703L28 26.7493L26.22 24.9703C25.87 24.6293 25.32 24.6293 24.98 24.9703C24.64 25.3103 24.64 25.8703 24.98 26.2093L26.76 27.9903L24.98 29.7603C24.64 30.1103 24.64 30.6603 24.98 30.9993C25.15 31.1693 25.38 31.2603 25.6 31.2603C25.83 31.2603 26.05 31.1693 26.22 30.9993L28 29.2303L29.78 30.9993C29.95 31.1803 30.17 31.2603 30.39 31.2603C30.62 31.2603 30.84 31.1693 31.01 30.9993Z" fill="url(#paint0_linear_5_4020)"/>
<defs>
<linearGradient id="paint0_linear_5_4020" x1="38" y1="37.9993" x2="14.2018" y2="31.0992" gradientUnits="userSpaceOnUse">
<stop stop-color="#FF5A5F"/>
<stop offset="1" stop-color="#FF8A9B"/>
</linearGradient>
</defs>
</svg>
